<?xml version="1.0" encoding="UTF-8"?>
<svg id="Layer_1" xmlns="http://www.w3.org/2000/svg" xmlns:xlink="http://www.w3.org/1999/xlink" version="1.1" viewBox="0 0 1255.7 921.6">
  <!-- Generator: Adobe Illustrator 29.1.0, SVG Export Plug-In . SVG Version: 2.1.0 Build 142)  -->
  <defs>
    <style>
      .st0 {
        fill: #6a4c4c;
        font-family: Helvetica, Helvetica;
        font-size: 24px;
      }

      .st0, .st1, .st2 {
        isolation: isolate;
      }

      .st2 {
        fill: #d2b5c9;
        opacity: .6;
      }
    </style>
  </defs>
  <g id="Layer_11" data-name="Layer_1">
    <image class="st1" width="5232" height="3840" transform="translate(0 0) scale(.2)" xlink:href="fil4-1.png"/>
  </g>
  <g id="Layer_2">
    <path class="st2" d="M167.8,169.5l9.6,650.4,925.9-11.1-2.9-608.6c-3.9-1.5-7.2-3.4-8.7-6.7-3.7-4.5-5.4-14.4-7.2-24-2.3-6.1-7.9-9.2-16.8-9.1l-264.4,3.4c-7.4-.4-13-3.3-16.3-9.6l-5.8-18.8c-4.4-8.5-11.3-11.9-19.7-12l-555.2,7.2c-14.6-1.2-21.1,7.5-21.6,23.6-2.6,9.7-8.2,14.9-16.8,15.4h0Z"/>
    <g class="st1">
      <text class="st0" transform="translate(209.6 170.2) rotate(-.3)"><tspan x="0" y="0">04 GRUNDLÆGGENDE</tspan></text>
      <text class="st0" transform="translate(472.3 168.8) rotate(-.3)"><tspan x="0" y="0"> </tspan></text>
      <text class="st0" transform="translate(477.6 168.7) rotate(-.3)"><tspan x="0" y="0">ANIM</tspan></text>
      <text class="st0" transform="translate(537.6 168.4) rotate(-.3)"><tspan x="0" y="0">A</tspan></text>
      <text class="st0" transform="translate(551.9 168.3) rotate(-.3)"><tspan x="0" y="0">TION</tspan></text>
    </g>
    <path class="st2" d="M187.2,109.7l909.4-7.6v-10.1c-6.6-2.3-11.5-10.3-15-22.8-2.8-8.9-6.3-16.4-14.2-16.3l-269.1,3.1c-8.1-.2-15.4,5.6-19.9,23.6-1.8,11.1-5,15.9-18.9,17.1-42.7,3.5-135.7.4-195.1,2.5l-368.2,3.2-9,7.3h0Z"/>
  </g>
</svg>